<svg
  xmlns="http://www.w3.org/2000/svg"
  width="256"
  height="256"
  viewBox="0 0 256 256"
  fill="none"
>
  <defs>
    <linearGradient id="bg" x1="32" y1="24" x2="224" y2="232" gradientUnits="userSpaceOnUse">
      <stop stop-color="#0F5FDB" />
      <stop offset="1" stop-color="#0A2F6B" />
    </linearGradient>
    <linearGradient id="accent" x1="64" y1="56" x2="192" y2="192" gradientUnits="userSpaceOnUse">
      <stop stop-color="#6EE7F9" />
      <stop offset="1" stop-color="#D7F2FF" />
    </linearGradient>
  </defs>

  <rect x="24" y="24" width="208" height="208" rx="48" fill="url(#bg)" />
  <rect x="42" y="42" width="172" height="172" rx="36" stroke="#FFFFFF" stroke-opacity="0.18" stroke-width="2" />

  <rect x="68" y="68" width="48" height="48" rx="14" fill="url(#accent)" />
  <rect x="140" y="68" width="48" height="48" rx="14" fill="url(#accent)" fill-opacity="0.88" />
  <rect x="68" y="140" width="48" height="48" rx="14" fill="url(#accent)" fill-opacity="0.88" />
  <path
    d="M140 154C140 146.268 146.268 140 154 140H174C181.732 140 188 146.268 188 154V174C188 181.732 181.732 188 174 188H154C146.268 188 140 181.732 140 174V154Z"
    fill="#F8FCFF"
  />

  <path
    d="M86 88H98V156C98 164.837 105.163 172 114 172H170V184H114C98.535 184 86 171.465 86 156V88Z"
    fill="#0B3E8A"
    fill-opacity="0.28"
  />
</svg>
